HIERARCHY
ROOT root
{
	OFFSET	0	13.1	24.9
	CHANNELS 6  Xposition Yposition Zposition Xrotation Yrotation Zrotation
	JOINT spine_1
	{
		OFFSET	0	9.99999	0
		CHANNELS 3  Xrotation Yrotation Zrotation
		JOINT spine_2
		{
			OFFSET	0	112	-10
			CHANNELS 3  Xrotation Yrotation Zrotation
			JOINT spine_3
			{
				OFFSET	0	206.5	19.3
				CHANNELS 3  Xrotation Yrotation Zrotation
				JOINT spine_4
				{
					OFFSET	0	110.4	14.6
					CHANNELS 3  Xrotation Yrotation Zrotation
					JOINT neck_1
					{
						OFFSET	0	71.8	-50.3
						CHANNELS 3  Xrotation Yrotation Zrotation
						JOINT neck_2
						{
							OFFSET	0	86.2	-25.8
							CHANNELS 3  Xrotation Yrotation Zrotation
							JOINT head_ee
							{
								OFFSET	0	179.8	-8.7
								CHANNELS 3  Xrotation Yrotation Zrotation
								End Site
								{
									OFFSET	1	0	0
								}
							}
						}
					}
					JOINT left_clavicle
					{
						OFFSET	-43.2	22.4	-70.8
						CHANNELS 3  Xrotation Yrotation Zrotation
						JOINT left_shoulder
						{
							OFFSET	-93.9	-5.79999	48.7
							CHANNELS 3  Xrotation Yrotation Zrotation
							JOINT left_elbow
							{
								OFFSET	-291.4	-30.8	15.2
								CHANNELS 3  Xrotation Yrotation Zrotation
								JOINT left_lowarm_twist
								{
									OFFSET	-110.7	-3.89999	13.6
									CHANNELS 3  Xrotation Yrotation Zrotation
									JOINT left_hand
									{
										OFFSET	-110.7	-3.89999	13.6
										CHANNELS 3  Xrotation Yrotation Zrotation
										JOINT left_ee
										{
											OFFSET	-80.8	-5.10001	12.1
											CHANNELS 3  Xrotation Yrotation Zrotation
											End Site
											{
												OFFSET	1	0	0
											}
										}
									}
								}
							}
						}
					}
					JOINT right_clavicle
					{
						OFFSET	43.2	22.4	-70.8
						CHANNELS 3  Xrotation Yrotation Zrotation
						JOINT right_shoulder
						{
							OFFSET	93.9	-5.79999	48.7
							CHANNELS 3  Xrotation Yrotation Zrotation
							JOINT right_elbow
							{
								OFFSET	291.4	-30.8	15.2
								CHANNELS 3  Xrotation Yrotation Zrotation
								JOINT right_lowarm_twist
								{
									OFFSET	110.7	-3.89999	13.6
									CHANNELS 3  Xrotation Yrotation Zrotation
									JOINT right_hand
									{
										OFFSET	110.7	-3.89999	13.6
										CHANNELS 3  Xrotation Yrotation Zrotation
										JOINT right_ee
										{
											OFFSET	80.8	-5.10001	12.1
											CHANNELS 3  Xrotation Yrotation Zrotation
											End Site
											{
												OFFSET	1	0	0
											}
										}
									}
								}
							}
						}
					}
				}
			}
		}
	}
	JOINT left_hip
	{
		OFFSET	-82.8	-127.5	0.300001
		CHANNELS 3  Xrotation Yrotation Zrotation
		JOINT left_knee
		{
			OFFSET	-28.2	-396.7	2.2
			CHANNELS 3  Xrotation Yrotation Zrotation
			JOINT left_ankle
			{
				OFFSET	-11.7	-411.3	35.4
				CHANNELS 3  Xrotation Yrotation Zrotation
				JOINT left_toes
				{
					OFFSET	0	-60	-88.6
					CHANNELS 3  Xrotation Yrotation Zrotation
					JOINT left_foot_ee
					{
						OFFSET	-22.5	-16.5	-42.2
						CHANNELS 3  Xrotation Yrotation Zrotation
						End Site
						{
							OFFSET	1	0	0
						}
					}
				}
			}
		}
	}
	JOINT right_hip
	{
		OFFSET	82.8	-127.5	0.300001
		CHANNELS 3  Xrotation Yrotation Zrotation
		JOINT right_knee
		{
			OFFSET	28.2	-396.7	2.2
			CHANNELS 3  Xrotation Yrotation Zrotation
			JOINT right_ankle
			{
				OFFSET	11.7	-411.3	35.4
				CHANNELS 3  Xrotation Yrotation Zrotation
				JOINT right_toes
				{
					OFFSET	0	-60	-88.6
					CHANNELS 3  Xrotation Yrotation Zrotation
					JOINT right_foot_ee
					{
						OFFSET	22.5	-16.5	-42.2
						CHANNELS 3  Xrotation Yrotation Zrotation
						End Site
						{
							OFFSET	1	0	0
						}
					}
				}
			}
		}
	}
}
MOTION
Frames: 7
Frame Time: 0.02
1149.46528429 735.022 -1804.20976451 4.73625714528 30.6248200068 -1.14470829475 -0.538519 -0.520394 -2.53211 -0.535023 -0.358269 -2.56007 -0.51644 0.211048 -2.57637 -0.525648 -0.198351 -2.57738 -20.4012 13.9991 11.1073 -20.7244 21.4934 16.2875 -0.0 0.0 -0.0 6.67614 6.44711 12.9009 -20.8472 -28.3254 73.9545 0.335378 -9.43294 0.0276703 -1.57327 -0.0580834 0.192505 -1.1462 28.7054 4.9984 -0.0 0.0 -0.0 3.59964 18.2582 -5.57735 -1.57626 24.7779 -60.7067 0.772195 20.9329 -0.142653 -70.0327 6.5502 -5.30255 0.266412 0.0453207 -1.76044 0.0 0.0 0.0 19.6406 -8.10988 -0.173373 -60.528 -2.25726 8.58336 3.52401 6.92952 -0.511209 39.3528 -0.0 -0.0 -0.0 0.0 -0.0 9.71741 -12.5708 0.127447 -20.1603 -0.293699 -3.06388 15.1731 19.512 2.37399 -23.6436 0.0 0.0 0.0 0.0 0.0 
1132.81516247 737.606 -1823.17733412 4.70272263736 31.7206226934 -1.28150394818 -0.32769 -0.554217 -2.53657 -0.324196 -0.39174 -2.56667 -0.304235 0.170202 -2.59079 -0.313521 -0.240961 -2.58517 -19.1651 14.0391 10.5155 -19.4673 21.6094 15.4772 -0.0 0.0 -0.0 7.78849 9.24953 14.8411 -27.8275 -30.4394 70.1858 0.3972 -11.1316 0.0387065 -2.39439 -0.0904945 0.292334 -1.34208 27.461 3.39762 -0.0 0.0 -0.0 3.82468 19.7315 -5.92528 -1.21103 22.545 -59.9697 0.788529 21.3362 -0.148542 -69.1993 6.44388 -5.29435 -0.521006 -0.485948 3.2716 0.0 0.0 0.0 18.6193 -3.64448 -1.47492 -56.016 -1.78549 8.0721 -2.11985 -0.832907 0.315893 39.558 -0.0 -0.0 -0.0 0.0 -0.0 8.35865 -12.2301 0.394398 -20.6087 -0.287905 -3.13244 18.0175 15.1362 2.68439 -23.9312 0.0 0.0 0.0 0.0 0.0 
1135.7066381 737.606 -1825.14774846 4.6789444931 31.2474401959 -1.23597509438 -0.32769 -0.554217 -2.53657 -0.324196 -0.39174 -2.56667 -0.304235 0.170202 -2.59079 -0.313521 -0.240961 -2.58517 -19.1651 14.0391 10.5155 -19.4673 21.6094 15.4772 -0.0 0.0 -0.0 7.78849 9.24953 14.8411 -27.8275 -30.4394 70.1858 0.3972 -11.1316 0.0387065 -2.39439 -0.0904945 0.292334 -1.34208 27.461 3.39762 -0.0 0.0 -0.0 3.82468 19.7315 -5.92528 -1.21103 22.545 -59.9697 0.788529 21.3362 -0.148542 -69.1993 6.44388 -5.29435 -0.521006 -0.485948 3.2716 0.0 0.0 0.0 18.6193 -3.64448 -1.47492 -56.016 -1.78549 8.0721 -2.11985 -0.832907 0.315893 39.558 -0.0 -0.0 -0.0 0.0 -0.0 8.35865 -12.2301 0.394398 -20.6087 -0.287905 -3.13244 18.0175 15.1362 2.68439 -23.9312 0.0 0.0 0.0 0.0 0.0 
1097.45087615 737.417 -1855.11860171 6.10400697704 34.6959355116 -2.2033601619 -0.246191 -0.447372 -2.54626 -0.242629 -0.284495 -2.56954 -0.227659 0.272219 -2.57087 -0.236856 -0.137079 -2.5816 -18.1027 13.4536 8.96353 -18.4119 21.0818 13.5862 -0.0 0.0 -0.0 8.49166 13.0813 15.816 -36.7281 -34.5886 64.2218 0.404845 -11.3404 0.0401963 -5.09332 -0.207062 0.617056 -0.97128 25.9986 4.82197 -0.0 0.0 -0.0 3.3135 17.1738 -5.06389 -3.27226 19.8969 -57.9267 1.34308 33.6351 -0.405967 -67.5086 6.22856 -5.27295 -1.7247 -1.65119 10.8346 0.0 0.0 0.0 21.5615 12.9047 -6.92284 -42.769 -0.652258 6.3815 -16.4696 -22.5505 2.89211 35.7816 -0.0 -0.0 -0.0 0.0 -0.0 4.19929 -11.6342 0.877697 -22.5489 -0.256661 -3.4285 29.0398 9.65899 3.93419 -22.6566 0.0 0.0 0.0 0.0 0.0 
1063.97072068 732.637 -1889.58622264 8.22913561096 35.8343076394 -2.01395669936 -0.356543 -0.204071 -2.66754 -0.352585 -0.0339768 -2.67512 -0.348833 0.545353 -2.6192 -0.358384 0.12501 -2.67241 -18.6369 13.2286 9.74351 -18.8866 20.3364 14.3129 -0.0 0.0 -0.0 8.04896 14.9976 14.8807 -43.3531 -35.7249 60.5618 0.533994 -14.817 0.0694346 -4.97197 -0.201493 0.602574 -0.210121 23.2586 8.06713 -0.0 0.0 -0.0 3.88794 16.6476 -6.33799 -2.16591 18.8495 -57.1699 1.67028 39.6014 -0.6014 -65.5655 5.9819 -5.24047 -2.52937 -3.51899 15.4228 0.0 0.0 0.0 23.9356 17.7229 -11.9441 -35.3414 -0.197294 5.33519 -20.9438 -28.6864 3.96355 33.5997 -0.0 -0.0 -0.0 0.0 -0.0 -1.08465 -15.8028 -1.14496 -21.7142 -0.271331 -3.30127 23.3399 8.48599 3.25074 -23.8931 0.0 0.0 0.0 0.0 0.0 
1045.13915905 731.602 -1897.92119804 8.67213751887 37.0598215445 -2.0290761265 -0.274033 -0.170051 -2.75268 -0.269817 0.00538638 -2.75792 -0.267921 0.597954 -2.69237 -0.277998 0.165409 -2.75296 -18.9462 13.3165 9.91942 -19.2079 20.476 14.5773 -0.0 0.0 -0.0 7.78773 15.5571 14.3927 -45.1321 -35.8801 59.6695 0.580197 -16.0355 0.0817252 -5.95128 -0.247313 0.719106 -0.37455 22.3971 6.77689 -0.0 0.0 -0.0 4.14737 17.3072 -6.83575 -1.65166 18.6315 -56.9839 1.74915 40.9045 -0.652362 -65.1197 5.92546 -5.23183 -2.69828 -3.10809 16.7926 0.0 0.0 0.0 23.3128 18.1444 -12.7456 -29.8905 0.0482462 4.53515 -21.1588 -28.4932 3.99398 32.8462 -0.0 -0.0 -0.0 0.0 -0.0 -2.52104 -16.1617 -2.0406 -21.5817 -0.273489 -3.28105 23.1506 5.22478 3.18345 -23.5938 0.0 0.0 0.0 0.0 0.0 
1019.54167171 730.311 -1901.90045397 8.16632814413 38.8942842493 -1.33858219225 -0.30262 -0.172481 -2.76354 -0.298371 0.00365124 -2.76891 -0.296342 0.599964 -2.70318 -0.3065 0.165689 -2.76395 -20.0416 13.5162 9.94517 -20.3931 21.0643 14.9406 -0.0 0.0 -0.0 7.30326 15.4766 13.5919 -46.4966 -36.0414 59.3345 0.663794 -18.2022 0.106337 -5.65016 -0.233012 0.683358 0.00390505 19.3739 7.85833 -0.0 0.0 -0.0 5.38756 17.6353 -9.47123 0.651989 16.1278 -55.9708 1.68568 39.8598 -0.611239 -63.8018 5.75899 -5.20372 -2.86742 -4.49947 17.2555 0.0 0.0 0.0 23.2619 17.3301 -13.4063 -25.2585 0.196285 3.83989 -20.8718 -28.4471 3.93739 33.0972 -0.0 -0.0 -0.0 0.0 -0.0 -3.34949 -14.3804 -2.8329 -21.7286 -0.271094 -3.30346 22.7999 9.5393 3.20148 -22.9313 0.0 0.0 0.0 0.0 0.0 
